<svg width="24" height="60" viewBox="0 0 24 60" fill="none" xmlns="http://www.w3.org/2000/svg">
<rect x="6.64166" y="0.247009" width="11.2259" height="7.11888" rx="3.55944" fill="url(#paint0_linear_250_469)"/>
<path fill-rule="evenodd" clip-rule="evenodd" d="M12.2547 10.9253C5.97915 10.9253 0.891846 16.0126 0.891846 22.2881V48.0256C0.891846 54.3011 5.97915 59.3884 12.2547 59.3884C18.5302 59.3884 23.6175 54.3011 23.6175 48.0256V22.2881C23.6175 16.0126 18.5302 10.9253 12.2547 10.9253ZM12.1178 18.318C10.152 18.318 8.55834 19.9116 8.55834 21.8775V48.7101C8.55834 50.676 10.152 52.2696 12.1178 52.2696C14.0836 52.2696 15.6772 50.676 15.6772 48.7101V21.8775C15.6772 19.9116 14.0836 18.318 12.1178 18.318Z" fill="url(#paint1_linear_250_469)"/>
<defs>
<linearGradient id="paint0_linear_250_469" x1="7.64871" y1="4.21179" x2="40.7212" y2="65.9995" gradientUnits="userSpaceOnUse">
<stop stop-color="#F6AD12"/>
<stop offset="0.167277" stop-color="#E268D7"/>
<stop offset="0.600898" stop-color="#994EBB"/>
</linearGradient>
<linearGradient id="paint1_linear_250_469" x1="111.759" y1="-33.5932" x2="140.518" y2="35.9401" gradientUnits="userSpaceOnUse">
<stop stop-color="#F6AD12"/>
<stop offset="0.167277" stop-color="#E268D7"/>
<stop offset="0.600898" stop-color="#994EBB"/>
</linearGradient>
</defs>
</svg>
