<svg width="769" height="300" viewBox="0 0 769 300" fill="none" xmlns="http://www.w3.org/2000/svg">
<path d="M258.6 164.8C258.6 153.6 260.867 143.8 265.4 135.4C269.933 126.867 276.133 120.267 284 115.6C292 110.933 300.867 108.6 310.6 108.6C320.2 108.6 328.533 110.667 335.6 114.8C342.667 118.933 347.933 124.133 351.4 130.4V110.4H369.8V220H351.4V199.6C347.8 206 342.4 211.333 335.2 215.6C328.133 219.733 319.867 221.8 310.4 221.8C300.667 221.8 291.867 219.4 284 214.6C276.133 209.8 269.933 203.067 265.4 194.4C260.867 185.733 258.6 175.867 258.6 164.8ZM351.4 165C351.4 156.733 349.733 149.533 346.4 143.4C343.067 137.267 338.533 132.6 332.8 129.4C327.2 126.067 321 124.4 314.2 124.4C307.4 124.4 301.2 126 295.6 129.2C290 132.4 285.533 137.067 282.2 143.2C278.867 149.333 277.2 156.533 277.2 164.8C277.2 173.2 278.867 180.533 282.2 186.8C285.533 192.933 290 197.667 295.6 201C301.2 204.2 307.4 205.8 314.2 205.8C321 205.8 327.2 204.2 332.8 201C338.533 197.667 343.067 192.933 346.4 186.8C349.733 180.533 351.4 173.267 351.4 165ZM585.677 108.4C594.21 108.4 601.81 110.2 608.477 113.8C615.143 117.267 620.41 122.533 624.277 129.6C628.143 136.667 630.077 145.267 630.077 155.4V220H612.077V158C612.077 147.067 609.343 138.733 603.877 133C598.543 127.133 591.277 124.2 582.077 124.2C572.61 124.2 565.077 127.267 559.477 133.4C553.877 139.4 551.077 148.133 551.077 159.6V220H533.077V158C533.077 147.067 530.343 138.733 524.877 133C519.543 127.133 512.277 124.2 503.077 124.2C493.61 124.2 486.077 127.267 480.477 133.4C474.877 139.4 472.077 148.133 472.077 159.6V220H453.877V110.4H472.077V126.2C475.677 120.467 480.477 116.067 486.477 113C492.61 109.933 499.343 108.4 506.677 108.4C515.877 108.4 524.01 110.467 531.077 114.6C538.143 118.733 543.41 124.8 546.877 132.8C549.943 125.067 555.01 119.067 562.077 114.8C569.143 110.533 577.01 108.4 585.677 108.4ZM759.931 161C759.931 164.467 759.731 168.133 759.331 172H671.731C672.398 182.8 676.065 191.267 682.731 197.4C689.531 203.4 697.731 206.4 707.331 206.4C715.198 206.4 721.731 204.6 726.931 201C732.265 197.267 735.998 192.333 738.131 186.2H757.731C754.798 196.733 748.931 205.333 740.131 212C731.331 218.533 720.398 221.8 707.331 221.8C696.931 221.8 687.598 219.467 679.331 214.8C671.198 210.133 664.798 203.533 660.131 195C655.465 186.333 653.131 176.333 653.131 165C653.131 153.667 655.398 143.733 659.931 135.2C664.465 126.667 670.798 120.133 678.931 115.6C687.198 110.933 696.665 108.6 707.331 108.6C717.731 108.6 726.931 110.867 734.931 115.4C742.931 119.933 749.065 126.2 753.331 134.2C757.731 142.067 759.931 151 759.931 161ZM741.131 157.2C741.131 150.267 739.598 144.333 736.531 139.4C733.465 134.333 729.265 130.533 723.931 128C718.731 125.333 712.931 124 706.531 124C697.331 124 689.465 126.933 682.931 132.8C676.531 138.667 672.865 146.8 671.931 157.2H741.131Z" fill="black"/>
<ellipse cx="105" cy="162.5" rx="105" ry="106.5" fill="black"/>
<path d="M397.5 91.5C397.5 88.8177 399.89 86.6433 402.839 86.6433H415.981C418.93 86.6433 421.32 88.8177 421.32 91.5V95.6095C421.32 98.2918 418.93 100.466 415.981 100.466H402.839C399.89 100.466 397.5 98.2918 397.5 95.6095V91.5Z" fill="black"/>
<path fill-rule="evenodd" clip-rule="evenodd" d="M105.731 109.5C92.3485 109.5 81.5 119.368 81.5 131.542L81.7919 197.804C81.7919 209.978 92.6404 219.846 106.023 219.846C119.405 219.846 130.253 209.978 130.253 197.804L129.962 131.542C129.962 119.368 119.113 109.5 105.731 109.5ZM105.439 123.84C101.247 123.84 97.8485 126.932 97.8485 130.745L98.1404 199.132C98.1404 202.945 101.539 206.037 105.731 206.037C109.923 206.037 113.321 202.945 113.321 199.132L113.029 130.745C113.029 126.932 109.631 123.84 105.439 123.84Z" fill="white"/>
<path d="M93.68 91.5C93.68 88.8177 96.0703 86.6433 99.019 86.6433H112.161C115.11 86.6433 117.5 88.8177 117.5 91.5V95.6095C117.5 98.2918 115.11 100.466 112.161 100.466H99.019C96.0703 100.466 93.68 98.2918 93.68 95.6095V91.5Z" fill="white"/>
<line x1="408.5" y1="220" x2="408.5" y2="113" stroke="black" stroke-width="17"/>
</svg>
